<?xml version="1.0" encoding="utf-8"?>
<!-- Generator: Adobe Illustrator 26.2.1, SVG Export Plug-In . SVG Version: 6.00 Build 0)  -->
<svg version="1.1" id="Capa_1" xmlns="http://www.w3.org/2000/svg" xmlns:xlink="http://www.w3.org/1999/xlink" x="0px" y="0px"
	 viewBox="0 0 589.2 279.3" style="enable-background:new 0 0 589.2 279.3;" xml:space="preserve">
<style type="text/css">
	.st0{fill:#4C4C6C;}
	.st1{clip-path:url(#SVGID_00000175313211384705583210000006789791107233365177_);}
	.st2{clip-path:url(#SVGID_00000042709604241363322970000007824079796921021596_);}
	.st3{clip-path:url(#SVGID_00000072263329954307022150000009575539681430491814_);}
	.st4{fill:#D4EAF9;}
	.st5{fill:#90C6EB;}
	.st6{fill:none;stroke:#86A7C0;stroke-width:1.213;stroke-linecap:round;stroke-miterlimit:10;}
	.st7{fill:none;stroke:#86A7C0;stroke-width:1.375;stroke-miterlimit:10;}
	.st8{clip-path:url(#SVGID_00000034049227503832071840000004676618180917983892_);}
	.st9{fill:none;stroke:#54738C;stroke-width:1.375;stroke-miterlimit:10;}
	.st10{clip-path:url(#SVGID_00000134231604303269433820000007371118055332600476_);}
	.st11{fill:#94B7D3;}
	.st12{fill:#71A3C8;}
	.st13{fill:none;stroke:#86A7C0;stroke-width:1.375;stroke-linecap:round;stroke-linejoin:round;}
	.st14{fill:none;stroke:#86A7C0;stroke-width:1.213;stroke-linecap:round;stroke-linejoin:round;}
	.st15{clip-path:url(#SVGID_00000067916517442317969560000007405417571207304603_);}
	.st16{fill:none;stroke:#54738C;stroke-width:1.375;stroke-linecap:round;stroke-linejoin:round;}
	.st17{clip-path:url(#SVGID_00000085959141138529906620000016466958127203519872_);}
	.st18{fill:none;stroke:#476073;stroke-width:1.375;stroke-linecap:round;stroke-linejoin:round;}
	.st19{clip-path:url(#SVGID_00000020369907376306834160000002199685006291527863_);}
	.st20{clip-path:url(#SVGID_00000173841449031785328160000007017508638731798443_);}
	.st21{clip-path:url(#SVGID_00000152946949539586901130000011382019617186950847_);}
	.st22{clip-path:url(#SVGID_00000049938464748657220300000001752836875373861284_);}
	.st23{fill:#4D4B6C;}
	.st24{fill:none;stroke:#373535;stroke-width:1.375;stroke-linecap:round;stroke-linejoin:round;}
	.st25{fill:none;stroke:#292929;stroke-width:1.375;stroke-linecap:round;stroke-linejoin:round;}
	.st26{clip-path:url(#SVGID_00000083065221510006320890000015891881010609531562_);}
	.st27{clip-path:url(#SVGID_00000070808027716904394330000011867651817700296093_);}
	.st28{fill:#F3D37A;}
	.st29{fill:#D5EFFC;}
	.st30{fill:none;stroke:#4D6D85;stroke-width:1.375;stroke-linejoin:round;}
	.st31{clip-path:url(#SVGID_00000083793085403488601810000008037353376557875628_);}
	.st32{fill:none;stroke:#86A7C0;stroke-width:1.375;stroke-linejoin:round;}
	.st33{clip-path:url(#SVGID_00000129182303203500075190000005994593893283537325_);}
	.st34{fill:none;stroke:#292929;stroke-width:1.375;stroke-linejoin:round;}
	.st35{clip-path:url(#SVGID_00000140710106291462736470000009579858385117980847_);}
	.st36{fill:#FFFFFF;}
	.st37{fill:none;stroke:#373535;stroke-width:1.537;stroke-miterlimit:10;}
	.st38{fill:#373535;}
	.st39{fill:none;stroke:#86A9C9;stroke-width:1.375;stroke-linecap:round;stroke-linejoin:round;}
	.st40{fill:#95C7EB;}
	.st41{fill:#CB5959;}
	.st42{fill:none;stroke:#7D6538;stroke-width:1.213;stroke-linecap:round;stroke-linejoin:round;}
	.st43{fill:none;stroke:#7C868F;stroke-width:1.213;stroke-linecap:round;stroke-linejoin:round;}
	.st44{fill:none;stroke:#924142;stroke-width:1.213;stroke-linecap:round;stroke-linejoin:round;}
	.st45{fill:none;stroke:#7D6538;stroke-width:1.375;stroke-linecap:round;stroke-linejoin:round;}
	.st46{clip-path:url(#SVGID_00000153707223646386366880000018068141010730670977_);}
	.st47{clip-path:url(#SVGID_00000074439608176963630230000015832510341569984422_);}
	.st48{fill:none;stroke:#7C868F;stroke-width:1.375;stroke-linecap:round;stroke-linejoin:round;}
	.st49{clip-path:url(#SVGID_00000056428736812780598260000004328245990199492277_);}
	.st50{fill:#3C3C4C;}
	.st51{fill:#9797A3;}
	.st52{fill:none;stroke:#86A7C0;stroke-width:1.375;stroke-linecap:round;stroke-miterlimit:10;}
	.st53{clip-path:url(#SVGID_00000105396276252628385490000005193267029647655825_);}
	.st54{fill:none;stroke:#54738C;stroke-width:1.375;stroke-linecap:round;stroke-miterlimit:10;}
</style>
<path class="st0" d="M265.2,250.4c-1.3,0-2.5,0-3.8,0c-0.7,0-1.3,0-2-0.1c-0.3-0.1-0.7-0.1-1-0.1c-1,0-2,0-3,0c-0.7,0-1.3,0-1.9-0.2
	c-0.5-0.1-1-0.1-1.4-0.1c-0.9,0-1.7,0-2.6-0.2c-0.3,0-0.5-0.1-0.8-0.1c-0.7,0-1.4-0.1-2.1-0.2c-0.2,0-0.4-0.1-0.6-0.1
	c-0.7,0-1.3-0.1-1.9-0.2c-0.3,0-0.5-0.1-0.8-0.1c-0.5,0-1-0.1-1.4-0.2c-0.2,0-0.3-0.1-0.5-0.1c-1.2-0.1-2.3-0.3-3.5-0.5
	c-0.7-0.1-1.4-0.2-2.1-0.3c-2.8-0.4-5.6-0.9-8.3-1.5c-2-0.4-4-0.9-6-1.4c-1.6-0.4-3.1-0.8-4.7-1.3c-1.3-0.4-2.7-0.8-4-1.3
	c-2.2-0.8-4.4-1.6-6.6-2.5c-1.7-0.7-3.4-1.5-5.1-2.3c-2.7-1.4-5.3-3-7.8-4.7c-1.2-0.8-2.3-1.7-3.4-2.7c-0.8-0.7-1.6-1.4-2.3-2.1
	c-1.9-1.9-3.5-4-4.9-6.3c-1.6-2.7-2.7-5.6-3.2-8.6c-0.2-0.9-0.3-1.9-0.5-2.8c0-0.3,0-0.5,0-0.8c0-0.7,0-1.3,0-2c0-3,0.8-5.9,2.3-8.5
	c0.3-0.5,0.7-1,1.1-1.5c1.2-1.4,2.6-2.6,4.1-3.6c1.8-1.1,3.8-1.9,5.9-2.4c1.5-0.4,3.1-0.6,4.7-0.6c0.7,0,1.3,0,2,0
	c1.3,0,2.6,0.2,3.9,0.4c2.4,0.5,4.8,1.1,7.1,1.9c2.9,1,5.7,2.3,8.4,3.8c3,1.7,5.9,3.6,8.7,5.5c1.9,1.3,3.8,2.7,5.8,4.1
	c1.1,0.8,2.3,1.6,3.4,2.4c1.5,1.1,3.1,2.1,4.7,3.1c1.5,0.9,3,1.9,4.5,2.7c1,0.5,1.9,1.1,2.9,1.5c2.9,1.4,5.9,2.6,9,3.6
	c1.7,0.5,3.4,0.9,5.2,1.2c1,0.2,2,0.3,3,0.5c0.3,0,0.6,0,0.9,0.1c0.5,0,1,0.1,1.4,0.2c0.4,0,0.8,0.1,1.2,0.1c4,0.1,7.9,0.1,11.9,0
	c0.3,0,0.5,0,0.8,0c0.9-0.2,1.7-0.2,2.6-0.2c0.1,0,0.3,0,0.4,0c0.6-0.1,1.1-0.2,1.7-0.2c0.6,0,1.1-0.1,1.7-0.2
	c0.1,0,0.3-0.1,0.4-0.1c1,0,2-0.1,3-0.3c1.4-0.2,2.7-0.4,4.1-0.6c1.1-0.2,2.2-0.4,3.3-0.6c2.6-0.5,5.1-1.2,7.5-2.2
	c2.4-0.9,4.8-2,7-3.2c1.5-0.8,3-1.6,4.4-2.5c0.7-0.5,1.5-0.9,2.2-1.4c1.8-1.2,3.5-2.4,5.2-3.8c0.9-0.7,1.8-1.5,2.7-2.3
	c0.4-0.4,0.8-0.7,1.2-1c0.7-0.7,1.4-1.3,2-2c0.4-0.4,0.8-0.9,1.2-1.4c1-1.1,1.9-2.2,2.7-3.4c2-2.9,3.9-5.9,5.8-8.9
	c1.2-1.9,2.3-3.9,3.5-5.8c1.2-2,2.3-4.1,3.3-6.2c1.4-2.7,2.6-5.4,3.7-8.2c0.7-1.9,1.4-3.9,2-5.8c0.8-2.5,1.4-5.1,2.2-7.7
	c0-0.1,0.1-0.3,0.1-0.4c0-0.1,0-0.2-0.1-0.2c-0.3-0.2-0.7-0.4-1-0.5c-0.9-0.4-1.8-0.8-2.8-1.1c-1.5-0.6-3-1.4-4.5-2.1
	c-2.1-1-4.1-2.2-6-3.5c-1.4-1-2.8-2-4.1-3c-2-1.6-3.8-3.3-5.5-5.2c-1.2-1.4-2.4-2.8-3.4-4.3c-1.7-2.4-3.2-4.9-4.5-7.5
	c-1.1-2.4-2.1-4.8-2.9-7.3c-0.9-2.9-1.7-5.8-2.2-8.7c-0.2-1.3-0.5-2.6-0.7-4c-0.2-1.1-0.3-2.2-0.4-3.4c0-0.2,0-0.3,0-0.5
	c-0.2-1-0.3-2-0.2-3c0-0.6,0-1.2-0.1-1.8c-0.1-0.3-0.1-0.7-0.1-1c0-1.4,0-2.9,0-4.3c0-0.3,0-0.5,0-0.8c0.2-1.1,0.2-2.2,0.2-3.3
	c0-0.6,0-1.2,0.2-1.8c0-0.1,0.1-0.3,0.1-0.4c0-1.1,0.1-2.2,0.3-3.2c0.1-0.9,0.3-1.9,0.4-2.8c0.3-1.8,0.6-3.5,1.1-5.2
	c0.3-1.3,0.8-2.6,1.4-3.8c1.1-2,2.6-3.9,4.3-5.4c1.2-1,2.5-1.7,4-2.1c0.7-0.2,1.5-0.3,2.2-0.4c0.2,0,0.4,0,0.7,0
	c1.2,0.1,2.3,0.4,3.4,0.8c1.5,0.6,2.9,1.4,4.2,2.4c0.7,0.6,1.4,1.2,2,1.8c1.3,1.3,2.3,2.8,3.2,4.4c0.6,1.1,1.2,2.3,1.6,3.6
	c0.3,1.1,0.6,2.2,0.8,3.3c0.3,1.5,0.4,3,0.7,4.5c0.1,0.3,0,0.6,0.1,0.9c0.1,0.7,0.2,1.4,0.2,2.1c0,0.7,0.1,1.3,0.2,1.9
	c0,0.2,0.1,0.4,0.1,0.6c0,0.8,0.1,1.7,0.2,2.5c0,1.1,0.2,2.2,0.3,3.2c0.1,1.3,0.3,2.6,0.5,3.9c0.1,0.9,0.2,1.7,0.3,2.6
	c0.1,0.5,0.2,0.9,0.2,1.4c0.4,2.5,0.9,5,1.5,7.4c0.4,1.9,1,3.8,1.6,5.7c0.4,1.2,1,2.4,1.7,3.5c0.7,1.3,1.8,2.3,3.2,3
	c0.3,0.1,0.6,0.2,0.9,0.2c0.3,0,0.5-0.1,0.7-0.3c0.3-0.4,0.6-0.8,0.9-1.3c1.5-2.2,3-4.5,4.5-6.7c0.8-1.2,1.5-2.5,2.2-3.7
	c0.6-1,1.2-2,1.7-3.1c0.8-1.8,1.6-3.6,2.3-5.4c1.2-3.3,2.2-6.6,2.9-10c0.7-3.2,1.8-6.3,3.1-9.3c0.9-2.1,1.9-4.1,3.1-6.1
	c0.2-0.3,0.3-0.5,0.4-0.8c0.6-1.1,1.3-2.1,2.2-2.9c0.5-0.5,1.1-1,1.7-1.4c1.9-1.5,4.1-2.5,6.5-3c0.3-0.1,0.6-0.1,0.9-0.1
	c0.8,0,1.7,0,2.5,0c1.4,0.1,2.8,0.5,3.9,1.3c1.3,0.9,2.4,2.2,3.1,3.6c0.8,1.7,1.4,3.5,1.7,5.3c0.2,1.1,0.2,2.2,0.4,3.2
	c0,0.3,0.1,0.6,0,0.9c0,1.6,0,3.1,0,4.7c0,0.7-0.2,1.5-0.2,2.2c0,0.7,0,1.5-0.2,2.2c0,0.1,0,0.3,0,0.4c-0.2,2.4-0.6,4.8-1.2,7.2
	c-0.4,1.7-0.8,3.3-1.2,4.9c-0.6,2.1-1.2,4.2-1.8,6.3c-0.7,2.5-1.5,4.9-2.2,7.4c-0.6,1.9-1.2,3.8-1.9,5.7c-1,3-2,6-3,8.9
	c-0.7,2.1-1.5,4.3-2.3,6.4c-0.5,1.4-1,2.7-1.5,4.1c-0.6,1.7-1.3,3.4-1.9,5.1c-0.8,2.2-1.6,4.3-2.5,6.5c-0.6,1.4-1.1,2.8-1.7,4.3
	c-0.9,2.4-1.8,4.7-2.8,7c-0.8,2-1.6,4-2.5,6c-0.4,0.9-0.8,1.8-1.1,2.6c-0.1,0.2-0.1,0.3-0.2,0.5c-1.9,4.2-4,8.4-6.2,12.6
	c-1.5,2.8-3,5.5-4.6,8.2c-1.7,2.9-3.6,5.7-5.5,8.4c-1.3,1.9-2.6,3.8-4.1,5.6c-0.9,1-1.7,2.1-2.5,3.2c-0.1,0.1-0.2,0.3-0.3,0.4
	c-0.8,0.9-1.7,1.9-2.5,2.8c-2,2.4-4.3,4.5-6.5,6.7c-1.1,0.8-2,1.8-3.1,2.7s-2.1,1.7-3.2,2.5c-2.4,1.9-4.9,3.6-7.6,5.1
	c-2.6,1.6-5.3,3.1-8,4.4c-2.4,1.1-4.8,2.2-7.3,3.2c-1.9,0.8-3.8,1.5-5.7,2.2c-2.3,0.8-4.6,1.6-7,2.3c-1.3,0.4-2.6,0.8-3.9,1.1
	c-2,0.5-4.1,1-6.1,1.3c-1.4,0.2-2.8,0.5-4.3,0.7c-1.1,0.2-2.2,0.3-3.2,0.4c-0.2,0-0.4,0-0.6,0.1c-0.6,0.1-1.1,0.2-1.7,0.2
	c-0.3,0-0.5,0-0.8,0.1c-0.8,0.2-1.6,0.2-2.3,0.2c-0.7,0-1.3,0-1.9,0.2c-0.3,0.1-0.6,0.1-0.9,0.1c-0.9,0-1.8,0-2.7,0
	c-0.7,0-1.4,0-2.1,0.1c-0.3,0.1-0.7,0.1-1,0.1C268,250.4,266.6,250.4,265.2,250.4L265.2,250.4z"/>
<path class="st0" d="M247.4,114.5c0,1.3,0,2.5,0,3.8c0,0.7,0,1.5-0.2,2.2c-0.1,0.5-0.1,1-0.1,1.6c0,1-0.1,2-0.2,3
	c-0.1,0.6-0.1,1.3-0.1,2c0,0.7-0.1,1.4-0.2,2.1c-0.1,0.5-0.1,1-0.1,1.6c0,0.7,0,1.4-0.2,2.1c0,0.2-0.1,0.3-0.1,0.5
	c-0.1,1.1-0.3,2.2-0.5,3.4c-0.3,2.1-0.8,4.1-1.2,6.2c-0.3,1.5-0.7,3.1-1.1,4.6c-0.7,2.7-1.5,5.4-2.5,8c-0.8,2.3-1.7,4.5-2.7,6.7
	c-0.2,0.5-0.4,1-0.7,1.6c-1.4,2.8-3,5.5-5,8c-0.5,0.7-1.1,1.4-1.7,2c-1.2,1.1-2.5,2.2-3.9,3c-2.4,1.4-5,2.4-7.7,2.9
	c-0.6,0.1-1.1,0.2-1.7,0.2c-0.1,0-0.2,0-0.3,0c-1.8,0.2-3.6,0.3-5.5,0.2c-1.3-0.2-2.6-0.3-3.9-0.5c-2.2-0.4-4.3-1.1-6.4-1.9
	c-1.9-0.7-3.8-1.6-5.5-2.7c-1.4-0.8-2.7-1.8-4-2.8c-0.1,0-0.1-0.1-0.2-0.2c-1.5-1.3-2.9-2.8-4.2-4.3c-0.8-0.9-1.5-1.9-2.3-2.9
	c-1.3-1.8-2.5-3.6-3.6-5.4c-1.6-2.6-3.1-5.3-4.4-8c-1.4-2.9-2.7-5.8-3.8-8.7c-0.8-2.2-1.5-4.4-2.2-6.6c-0.3-1-0.5-2.1-0.7-3.2
	c-0.1-0.6-0.2-1.3-0.4-1.9c-0.4-1.8-0.8-3.7-1.2-5.5c-0.4-1.9-0.7-3.8-1-5.6c-0.1-0.9-0.3-1.8-0.4-2.7c-0.1-1-0.3-2-0.4-3
	c0-0.2,0-0.4-0.1-0.7c0-0.7-0.1-1.4-0.2-2.1c0-0.3-0.1-0.6-0.1-0.9c0-0.8,0-1.6,0-2.4c0-0.5-0.1-1-0.1-1.4c-0.1-1.1-0.1-2.3,0-3.4
	c0.1-0.6,0.1-1.1,0.1-1.7c0-0.6,0-1.1,0-1.7c0-0.4,0.1-0.9,0.1-1.3c0-0.1,0.1-0.3,0.1-0.4c0-0.9,0.1-1.7,0.3-2.6
	c0.1-1,0.3-2.1,0.5-3.1c0.4-2,1-4,1.6-5.9c0.5-1.4,1-2.7,1.7-4c0.5-0.9,1.1-1.8,1.8-2.5c1.6-1.6,3.4-3,5.3-4.2
	c1.8-1.1,3.7-1.9,5.7-2.6c0.9-0.3,1.9-0.5,2.8-0.6c0.8-0.2,1.6-0.2,2.5-0.2c3.4,0,6.5,1.6,8.6,4.3c1,1.4,1.9,2.9,2.4,4.5
	c0.6,1.6,1,3.2,1.3,4.9c0.2,1.1,0.3,2.2,0.3,3.2c0,1.6,0,3.2,0,4.8c0,0.3,0,0.6-0.1,0.9c-0.1,0.8-0.2,1.6-0.2,2.3c0,0.5,0,1-0.2,1.6
	c-0.1,0.3-0.1,0.5-0.1,0.8c0,0.8-0.1,1.6-0.2,2.3c0,0.3-0.1,0.6-0.1,0.9c0,0.5-0.1,1-0.1,1.4s-0.1,1-0.1,1.4c0,0.6-0.1,1.2-0.2,1.8
	c-0.1,0.5-0.1,1-0.1,1.4c0,0.8,0,1.6-0.2,2.3c0,0.3-0.1,0.6-0.1,0.9c0,0.9,0,1.7,0,2.6c0,0.7,0,1.5-0.2,2.2
	c-0.1,0.3-0.1,0.6-0.1,0.9c0,3.7,0,7.3,0,11c0,0.5,0,1,0.1,1.6c0.1,0.3,0.1,0.6,0.1,0.9c0,1.1,0.2,2.3,0.6,3.3
	c0.3,1,0.8,1.8,1.5,2.6c1,1.1,2.2,1.9,3.6,2.3c3,1,6.3,0.2,8.5-2.1c0.6-0.7,1.1-1.5,1.4-2.3c0.5-1.4,0.9-2.9,1.2-4.4
	c0.2-1,0.4-2,0.5-3c0-0.1,0-0.3,0-0.4c0.2-1,0.3-2.1,0.2-3.1c0-1.4,0-2.9,0-4.3c0-0.3,0-0.7-0.1-1c-0.1-0.7-0.2-1.5-0.2-2.2
	c0-0.4-0.1-0.9-0.1-1.3c0-0.3-0.1-0.6-0.1-0.9c-0.1-0.4-0.1-0.9-0.2-1.3c0-0.2-0.1-0.3-0.1-0.5c-0.1-1.7-0.5-3.4-0.7-5
	c-0.2-1-0.3-2.1-0.4-3.1c0-2.1,0.5-4.3,1.4-6.2c0.9-2,2.1-3.7,3.7-5.1c1.7-1.5,3.7-2.5,5.8-3.1c1-0.1,1.9-0.3,2.9-0.3
	c0.2,0,0.4,0,0.5,0c1.8,0.2,3.6,0.6,5.3,1.3c1.3,0.5,2.5,1.1,3.6,1.8c1.6,1,2.9,2.3,4,3.8c1.2,1.8,2.1,3.8,2.6,5.9
	c0.3,1.3,0.5,2.6,0.7,3.8c0,0.3,0.1,0.5,0.1,0.8c0,0.3,0,0.5,0,0.8c0.2,1.5,0.3,2.9,0.2,4.4C247.5,113.1,247.4,113.8,247.4,114.5
	L247.4,114.5z"/>
<path class="st0" d="M248.2,173.9c0-1.4,0-2.8,0-4.2c0-0.7,0-1.5,0.2-2.2c0-0.3,0.1-0.6,0.1-0.9c0-0.9,0-1.7,0-2.6
	c0-0.7,0-1.5,0.2-2.2c0-0.3,0.1-0.6,0.1-0.9c0-0.7,0-1.5,0-2.2c0-0.3,0-0.5,0-0.8c0.2-1.1,0.2-2.2,0.2-3.3c0-0.5,0-1,0.1-1.6
	c0.1-0.4,0.1-0.9,0.1-1.3c0-0.9,0.1-1.7,0.2-2.6c0.1-0.4,0.1-0.9,0.1-1.3c0-0.5,0-1,0.2-1.6c0-0.1,0.1-0.3,0.1-0.4
	c0-1.1,0.2-2.3,0.3-3.4c0.1-0.8,0.2-1.6,0.3-2.5c0.1-0.9,0.3-1.7,0.4-2.6c0.1-1,0.4-2,0.6-2.9c0.4-2.2,1-4.3,1.8-6.4
	c0.8-2.2,1.7-4.3,2.9-6.3c1.2-2,2.5-3.9,4-5.7c0.6-0.7,1.2-1.5,1.9-2.1c1.1-1.1,2.2-2.2,3.3-3.3c1.9-1.9,4.1-3.6,6.4-5
	c1.6-1,3.4-1.8,5.2-2.5c1.6-0.6,3.2-1.1,4.9-1.4c0.9-0.2,1.7-0.3,2.6-0.4c0.2,0,0.4,0,0.6-0.1c0.6-0.1,1.3-0.2,1.9-0.2
	c0.7,0,1.3,0,2-0.2c0.3-0.1,0.6-0.1,0.9-0.1c0.7,0,1.5,0,2.2,0c0.5,0,1,0,1.4,0.1c0.2,0,0.4,0.1,0.6,0.1c2.3,0.1,4.6,0.8,6.6,1.9
	c0.9,0.5,1.7,1,2.4,1.8c0.8,0.7,1.5,1.5,2,2.4c1.1,1.8,1.8,3.8,2.1,5.9c0.2,1.1,0.2,2.3,0.2,3.4c0,0.6-0.1,1.1-0.2,1.7
	c-0.1,0.7-0.2,1.5-0.3,2.2c-0.3,1.2-0.6,2.4-1.1,3.5c-0.3,0.7-0.7,1.3-1.1,1.9c-0.5,0.7-1,1.4-1.6,2c-1.1,1.3-2.5,2.4-3.9,3.3
	c-1.2,0.8-2.5,1.5-3.8,2c-1.7,0.7-3.4,1.3-5.2,1.7c-0.8,0.2-1.6,0.3-2.4,0.5c-1,0.2-2.1,0.1-3.1,0.3c-1.2,0.2-2.3,0.1-3.5,0.2
	c-2.2,0.1-4.3,0.5-6.4,1.2c-1.3,0.5-2.5,1.1-3.6,1.8c-1.1,0.7-1.8,1.8-2.1,3.1c-0.1,0.6-0.1,1.2,0,1.8c0.2,1.3,0.9,2.4,1.9,3.2
	c0.6,0.5,1.3,0.8,2,0.8c1.6,0.1,3.1,0,4.7-0.2c0.2,0,0.4-0.1,0.6-0.1c1.1,0,2.3,0,3.4,0c1,0,2,0.3,2.9,0.7c1.5,0.7,2.6,2,3,3.6
	c0.3,1,0.4,2.2,0.2,3.2c-0.1,1.1-0.5,2-1.3,2.8c-0.8,0.8-1.6,1.6-2.5,2.3c-1.9,1.5-3.9,2.8-5.9,4.1c-0.7,0.5-1.4,0.9-2.1,1.4
	c-1.4,0.9-2.4,2.3-3,3.9c-0.5,1.2-0.5,2.6-0.2,3.9c0.2,0.8,0.4,1.5,0.8,2.2c0.1,0.2,0.3,0.4,0.5,0.6c1,0.8,2.3,1.3,3.6,1.4
	c0.6,0,1.2,0,1.8,0c1.3,0,2.6-0.4,3.7-1.2c0.2-0.1,0.4-0.3,0.6-0.5c1.3-1.2,2.5-2.5,3.7-3.9c0.1-0.1,0.1-0.1,0.2-0.2
	c0.9-1,1.9-2,2.8-3.1c0.8-1,1.7-1.9,2.6-2.9c0.3-0.3,0.5-0.6,0.8-0.9c1.2-1.2,2.5-2.4,3.9-3.4c1.5-1.1,3.3-1.8,5.2-2
	c0.8-0.1,1.6-0.2,2.5-0.2c1.1,0,2.3,0.1,3.4,0.3c2,0.4,4,1,5.8,2c1.2,0.7,2.3,1.6,3.2,2.6c0.6,0.8,1,1.6,1.4,2.5
	c0.3,0.9,0.6,1.7,0.8,2.6c0.1,0.3,0.1,0.6,0.1,0.9c0,1.4,0,2.9,0,4.3c0,0.7-0.1,1.4-0.3,2.1c-0.4,2.2-1.2,4.4-2.2,6.4
	c-1,2.1-2.4,4-4.1,5.6c-0.6,0.6-1.2,1.2-1.8,1.7c-0.1,0.1-0.3,0.2-0.4,0.3c-1.4,1.3-2.9,2.5-4.4,3.7c-1.5,1.2-2.9,2.3-4.4,3.5
	c-1,0.8-2.1,1.6-3.1,2.4c-2,1.5-4,3-6.1,4.3c-1.8,1.2-3.7,2.3-5.7,3.2c-2.2,1-4.4,1.8-6.8,2.4c-1.3,0.4-2.6,0.6-3.9,0.6
	c-1.2,0.2-2.3,0.3-3.5,0.2c-3,0-6-0.7-8.7-2c-2.2-1.1-4.3-2.5-6.2-4.1c-0.6-0.5-1.3-1.1-1.9-1.7c-1.7-1.7-3.2-3.6-4.3-5.7
	c-0.4-0.6-0.6-1.3-0.9-2c-0.8-1.8-1.4-3.7-1.8-5.6c-0.3-1.4-0.5-2.9-0.8-4.4c0-0.3-0.1-0.5-0.1-0.8c0-0.3,0-0.5-0.1-0.8
	c-0.2-0.9-0.2-1.7-0.2-2.6c0-0.3,0-0.6-0.1-0.9c-0.1-0.7-0.2-1.5-0.2-2.2C248.2,176.7,248.2,175.3,248.2,173.9L248.2,173.9z"/>
<path class="st0" d="M143.5,202.3c-0.8,0-1.7,0-2.5,0c-0.6,0-1.2,0-1.8-0.2c-0.1,0-0.3,0-0.4-0.1c-2.1-0.2-4.1-0.5-6.2-1.1
	c-1.5-0.4-3-0.9-4.4-1.5c-1.7-0.7-3.3-1.6-4.8-2.7c-0.7-0.4-1.3-1-1.9-1.5c-0.2-0.2-0.5-0.4-0.7-0.6c-0.2-0.1-0.3-0.3-0.5-0.4
	c-0.7-0.9-1.6-1.7-2.3-2.7c-0.8-1.1-1.5-2.2-2.1-3.3c-0.3-0.7-0.7-1.3-0.9-2c-0.8-1.8-1.4-3.8-1.8-5.7c-0.2-1-0.4-2-0.5-3
	c0-0.4-0.2-0.8-0.2-1.2c0-1.1-0.3-2.2-0.3-3.4c0-0.3,0-0.5-0.1-0.8c-0.1-0.6-0.2-1.3-0.2-1.9c0-0.3,0-0.5,0-0.8
	c-0.1-0.9-0.2-1.7-0.2-2.6c-0.1-1.2-0.3-2.4-0.3-3.6c-0.2-0.9-0.3-1.7-0.2-2.6c0-0.2,0-0.4,0-0.7c-0.2-0.9-0.2-1.7-0.2-2.6
	c0-0.5-0.1-1-0.1-1.6c-0.1-0.4-0.1-0.9-0.1-1.3c0-0.9-0.1-1.7-0.2-2.6c-0.1-0.5-0.1-1-0.1-1.4c0-0.8,0-1.7-0.2-2.5
	c0-0.3-0.1-0.5-0.1-0.8c0-0.6-0.1-1.1-0.2-1.7c-0.1-0.3-0.1-0.5-0.1-0.8c0-0.5-0.1-1-0.2-1.6c-0.1-0.3-0.1-0.5-0.1-0.8
	c0-0.5-0.1-1-0.2-1.6c-0.1-0.3-0.1-0.6-0.1-0.9c0-0.5-0.1-1-0.2-1.4c-0.1-0.3-0.1-0.6-0.1-0.9c0-0.6-0.1-1.2-0.2-1.8
	c0-0.2-0.1-0.4-0.1-0.6c0-0.7-0.1-1.4-0.2-2.1c-0.1-0.4-0.1-0.9-0.1-1.3c0-0.7-0.1-1.3-0.2-1.9c-0.1-0.4-0.1-0.9-0.1-1.3
	c0-1,0-2.1-0.2-3.1c0-0.3-0.1-0.6,0-0.9c0-2.8,0-5.6,0-8.4c0-0.6,0-1.1,0.1-1.7c0-0.1,0.1-0.3,0.1-0.4c0-1.2,0.1-2.4,0.3-3.6
	c0-0.5,0.2-0.9,0.2-1.4c0.2-1.2,0.5-2.3,0.9-3.4c0.7-1.9,1.7-3.7,3-5.2c0.2-0.2,0.4-0.5,0.6-0.7c0.2-0.2,0.4-0.5,0.6-0.7
	c0.8-0.7,1.5-1.4,2.4-2.1c2.3-1.8,4.9-3.1,7.6-3.9c1.5-0.5,3.1-0.7,4.6-0.7c0.8,0,1.6,0,2.4,0c2.5,0,5,0.5,7.3,1.4
	c3.6,1.3,6.6,3.8,8.6,7.1c1.2,2.1,2.1,4.4,2.6,6.8c0.3,1.1,0.5,2.2,0.6,3.3c0.1,0.9,0.2,1.9,0.2,2.9c0,0.2,0,0.4,0,0.7
	c0.2,1.7,0.2,3.5,0.2,5.2c-0.2,1.5-0.3,3-0.2,4.6c0,0.3,0,0.5-0.1,0.8c-0.1,0.7-0.2,1.5-0.2,2.2c0,0.8-0.1,1.6-0.2,2.3
	c-0.1,0.6-0.1,1.1-0.1,1.7c0,0.6-0.1,1.2-0.2,1.8c-0.1,0.4-0.1,0.9-0.1,1.3c0,0.7-0.1,1.5-0.2,2.2c-0.1,0.4-0.1,0.9-0.1,1.3
	c0,0.7-0.1,1.4-0.2,2.1c-0.1,0.4-0.1,0.9-0.1,1.3c0,0.7-0.1,1.4-0.2,2.1c-0.1,0.5-0.1,1-0.1,1.4c0,0.7-0.1,1.3-0.2,1.9
	c-0.1,0.4-0.1,0.9-0.1,1.3c0,0.6-0.1,1.2-0.2,1.8c-0.1,0.5-0.1,1-0.1,1.6c0,0.6-0.1,1.2-0.2,1.8c-0.1,0.3-0.1,0.5-0.1,0.8
	c0,0.9-0.1,1.7-0.2,2.6c0,0.3-0.1,0.6-0.1,0.9c0,0.7-0.1,1.4-0.2,2.1c-0.1,0.3-0.1,0.7-0.1,1c0,0.7-0.1,1.3-0.1,2
	c0,0.1,0.1,0.3,0.2,0.3c0,0,0.1,0,0.1,0c0.2-0.1,0.4-0.2,0.6-0.3c0.9-0.4,1.7-0.9,2.6-1.3c1.9-0.9,3.9-1.7,6-2.1
	c1.7-0.4,3.5-0.7,5.3-0.6c2.3,0,4.6,0.8,6.5,2.1c0.3,0.2,0.6,0.4,0.8,0.7c0.4,0.4,0.8,0.8,1.2,1.2c1.4,1.5,2.5,3.2,3.2,5.2
	c0.6,1.6,0.8,3.3,0.8,5c0,0.3,0,0.7,0,1c0,1.3-0.2,2.6-0.5,3.9c-0.6,2.5-1.4,4.9-2.6,7.2c-1,2-2.2,4-3.6,5.8
	c-0.2,0.3-0.4,0.5-0.7,0.8c-1.5,1.6-3.2,3.1-5,4.4c-1.8,1.3-3.8,2.5-5.8,3.5c-2.3,1.2-4.8,2.1-7.4,2.6c-1.1,0.3-2.2,0.4-3.4,0.4
	C144.9,202.3,144.2,202.3,143.5,202.3L143.5,202.3z"/>
<path class="st0" d="M104.3,163.4c-0.2-1-0.2-2.1-0.4-3.1c-0.3-1.5-0.6-3-1-4.5c-0.9-3.2-2.3-6.2-4-9.1c-1.3-2.2-2.9-4.3-4.8-6.2
	c-0.8-0.8-1.6-1.6-2.4-2.4c-1.3-1.2-2.6-2.3-4-3.3c-2.2-1.6-4.5-3-6.9-4.2c-0.1-0.1-0.2-0.1-0.4-0.2c-2.5-1.2-5.1-2.1-7.8-2.6
	c-0.4-0.1-0.8-0.2-1.1-0.3c-0.2-0.1-0.3-0.3-0.3-0.5c0-0.2,0.1-0.3,0.1-0.5c0.3-1.2,0.6-2.4,0.8-3.7c0.4-2.1,0.7-4.1,0.9-6.2
	c0-0.2,0.1-0.3,0.1-0.5c0.1-0.4,0.1-0.9,0.1-1.3c0-0.7,0.1-1.5,0.2-2.2c0-0.3,0.1-0.5,0.1-0.8c0-2.4,0-4.8,0-7.2
	c0-0.3-0.1-0.7-0.1-1c0-0.4-0.1-0.9-0.1-1.3c0-0.3,0-0.7-0.1-1c-0.3-1.6-0.5-3.2-1-4.7c-0.9-3.3-2.4-6.3-4.5-8.9
	c-1.3-1.6-2.9-3-4.6-4.2c-2.3-1.6-4.9-2.9-7.6-3.8c-2.8-1-5.6-1.8-8.4-2.4c-1.1-0.2-2.2-0.4-3.3-0.6c-1.1-0.2-2.2-0.3-3.2-0.3
	c-0.1,0-0.3,0-0.4-0.1c-0.6-0.1-1.1-0.2-1.7-0.2c-0.6,0-1.2,0-1.8,0c-1.5-0.1-3.1,0-4.6,0.2c-0.3,0-0.5,0-0.8,0
	c-0.2,0-0.4,0-0.7,0.1c-1.6,0.3-3.2,0.5-4.7,1c-1.3,0.3-2.7,0.8-4,1.3c-2.4,1-4.8,2.4-6.9,4c-1.5,1.1-2.9,2.3-4.2,3.6
	c-0.7,0.7-1.4,1.5-2,2.2c-1.3,1.6-2.5,3.3-3.5,5.1c-1.5,2.8-2.7,5.8-3.4,8.9c-0.3,0.9-0.4,1.9-0.5,2.8c0,0.3-0.1,0.5-0.1,0.8
	c0,0.3-0.1,0.5-0.1,0.8c0,1.3-0.1,2.5-0.2,3.8C1,111.5,1,112.3,1,113.2c0,0.4,0,0.8-0.1,1.2c-0.1,0.8-0.2,1.6-0.2,2.5
	c0,0.9,0,1.8,0,2.7c0,0.3,0,0.7-0.1,1c0,0.5-0.1,1-0.1,1.4c0,1.6,0,3.2-0.1,4.8c0,0.4,0,0.8-0.1,1.2c-0.1,0.6-0.2,1.3-0.1,2
	c0,3.1,0,6.2-0.1,9.3c0,0.5,0,1-0.1,1.4c-0.1,0.5-0.1,1-0.1,1.6v6.3c0,2.1,0,4.2,0,6.3c0,0.4,0,0.8,0,1.2c0.1,0.7,0.2,1.4,0.1,2.1
	c0,3.9,0,7.8,0.1,11.8c0,0.4,0,0.9,0.1,1.3c0.1,0.7,0.2,1.5,0.1,2.2c0,0.6,0,1.2,0,1.8c-0.1,2,0,3.9,0.2,5.9c0,1,0.1,1.9,0.3,2.9
	c0.1,0.8,0.2,1.6,0.4,2.5c0.5,2.5,1.4,4.9,2.6,7.1c0.6,1.1,1.4,2.2,2.3,3.1c0.7,0.7,1.6,1.4,2.5,1.9c2.2,1.4,4.6,2.5,7,3.4
	c1.4,0.5,2.8,1,4.2,1.4c1,0.3,1.9,0.6,2.9,0.8c2.4,0.6,4.7,1.1,7.1,1.5c0.6,0.1,1.3,0.2,1.9,0.3c0.7,0.2,1.4,0.2,2.1,0.3
	c1.2,0.2,2.3,0.4,3.5,0.5c0.2,0,0.3,0,0.5,0.1c0.5,0.1,0.9,0.2,1.4,0.2c0.3,0,0.5,0,0.8,0.1c0.7,0.1,1.4,0.2,2.1,0.2
	c0.3,0,0.5,0,0.8,0.1c0.8,0.2,1.6,0.2,2.3,0.2c0.7,0,1.3,0,1.9,0.2c0.3,0.1,0.6,0.1,0.9,0.1c2.7,0,5.3,0,8,0c0.3,0,0.7,0,1-0.1
	c0.6-0.1,1.2-0.2,1.8-0.2c0.3,0,0.6,0,0.9-0.1c1.5-0.3,2.9-0.4,4.4-0.7c2.3-0.4,4.5-1,6.7-1.7c3-1,5.9-2.2,8.7-3.6
	c1.8-0.9,3.5-1.7,5.2-2.7c2.1-1.2,4.1-2.4,6.1-3.8c1.5-1.1,3-2.4,4.4-3.7c0.6-0.6,1.2-1.3,1.7-1.9c1.2-1.4,2.2-2.8,3-4.4
	c1.3-2.2,2.2-4.7,2.8-7.2c0.6-2.2,1-4.5,1.1-6.8c0-0.2,0-0.3,0.1-0.5c0.1-0.6,0.2-1.2,0.2-1.8c0-1.4,0-2.7,0-4.1
	C104.3,164.1,104.3,163.8,104.3,163.4z M33.3,126.7c-0.7-1.2-1.2-2.6-1.5-4c-0.2-0.7-0.3-1.5-0.3-2.2c-0.2-1.4-0.3-2.8-0.2-4.2
	c0-0.7,0-1.3,0.2-1.9c0-0.3,0.1-0.5,0.1-0.8c0.1-1.4,0.5-2.7,1.1-3.8c0.5-0.9,1.2-1.7,2-2.4c0.9-0.7,1.9-1.3,3-1.7
	c1.8-0.6,3.8-0.6,5.7-0.1c1,0.3,2,0.8,2.9,1.5c1.4,1.1,2.2,2.8,2.3,4.5c0,0.4,0,0.8,0,1.2c0,1.4-0.2,2.8-0.7,4.2
	c-0.2,0.9-0.6,1.7-1,2.6c-0.6,1.3-1.3,2.6-2.1,3.7c-0.5,0.7-1,1.4-1.6,2c-1.1,1.2-2.5,2.1-3.9,2.7c-0.9,0.4-1.8,0.5-2.8,0.5
	c-0.9-0.1-1.7-0.4-2.4-0.9C33.8,127.4,33.5,127.1,33.3,126.7z M64.1,164.3c-0.2,1-0.5,2-1,3c-0.8,1.7-2,3.3-3.5,4.5
	c-0.4,0.3-0.8,0.5-1.2,0.8c-1,0.6-2,1.1-3.1,1.5c-1.6,0.5-3.3,1-4.9,1.2c-0.3,0-0.5,0.1-0.8,0.1c-0.5,0-1,0.1-1.4,0.2
	c-0.3,0.1-0.7,0.1-1,0.1c-1.2,0-2.4,0-3.7,0c-0.1,0-0.2,0-0.3,0c-0.6-0.1-1.3-0.2-1.9-0.2c-0.6,0-1.2-0.1-1.8-0.2
	c-0.7-0.2-1.4-0.2-2.1-0.4c-0.7-0.1-1.4-0.4-2.1-0.8c-0.4-0.2-0.8-0.6-0.9-1.1c-0.1-0.4-0.2-0.8-0.2-1.2c0-0.9,0-1.7,0-2.6h0
	c0-0.7,0-1.3,0-2c0-0.5,0.1-1,0.1-1.4c0-0.4,0.1-0.9,0.1-1.3c0-1.4,0-2.7,0-4.1c0-0.7,0.2-1.5,0.6-2.1c0.4-0.7,0.9-1.4,1.6-1.9
	c0.8-0.6,1.6-1.2,2.6-1.5c1.9-0.7,3.8-1.2,5.8-1.6c0.8-0.1,1.6-0.2,2.3-0.3c1.2-0.2,2.4-0.2,3.6-0.2c0.5,0,1,0,1.4,0.1
	c0.2,0,0.4,0.1,0.6,0.1c2.4,0.2,4.6,0.8,6.7,1.9c0.7,0.3,1.3,0.8,1.8,1.2c1,0.9,1.8,2,2.2,3.2c0.2,0.8,0.4,1.6,0.5,2.4
	C64.3,162.7,64.3,163.5,64.1,164.3L64.1,164.3z"/>
<g>
	<defs>
		<rect id="SVGID_1_" x="338.2" y="-33.6" width="293.7" height="368.2"/>
	</defs>
	<clipPath id="SVGID_00000044882384752634967300000005530781511147272381_">
		<use xlink:href="#SVGID_1_"  style="overflow:visible;"/>
	</clipPath>
	<g style="clip-path:url(#SVGID_00000044882384752634967300000005530781511147272381_);">
		<g>
			<defs>
				<rect id="SVGID_00000152980685082229905850000018287615106578918832_" x="338.2" y="-33.6" width="293.7" height="368.2"/>
			</defs>
			<clipPath id="SVGID_00000123406300311431528770000001216681311638616759_">
				<use xlink:href="#SVGID_00000152980685082229905850000018287615106578918832_"  style="overflow:visible;"/>
			</clipPath>
			<g style="clip-path:url(#SVGID_00000123406300311431528770000001216681311638616759_);">
				<g>
					<defs>
						<rect id="SVGID_00000042705524341760169730000007278213551213712574_" x="338.2" y="-33.6" width="293.7" height="368.2"/>
					</defs>
					<clipPath id="SVGID_00000009552063896800641950000017030215308567034008_">
						<use xlink:href="#SVGID_00000042705524341760169730000007278213551213712574_"  style="overflow:visible;"/>
					</clipPath>
					<g style="clip-path:url(#SVGID_00000009552063896800641950000017030215308567034008_);">
						<path class="st4" d="M519.2,132c0,0,36.9-31.2,40-33.2c0.3-0.2,0.4-0.6,0.2-0.9c0-0.1-0.1-0.1-0.1-0.1
							c-0.7-0.6-3.8-4.5-1.2-7.3c1.9-2.1,5.1-2.2,7.2-0.3c0.1,0.1,0.3,0.3,0.4,0.4c0.1,0.2,0.6,0.7,0.9-0.6c0.5-2.9,3.4-5.6,6.5-4.6
							c2.9,1,3.7,5.4,1.3,7.5c-0.5,0.5,0.6,0.3,1.1-0.1c2.2-1.6,5.3-1.1,6.9,1.2c0.2,0.2,0.3,0.4,0.4,0.7c1.4,2.8-0.9,5.6-1.8,6.5
							c-0.4,0.4,0.1,0.7,0.5,0.7c2.2,0.2,3.8,2.1,3.6,4.3c0,0.2-0.1,0.5-0.1,0.7c-1,3.8-5.8,4.2-8.4,3.3c-0.8-0.3-0.9,0.1-1,0.3
							s-0.7,1.4-3.9,2.2c-0.3,0.1-0.5,0.3-0.7,0.5c-2,2.1-39.9,33.1-39.9,33.1"/>
						<path class="st5" d="M519.4,131.8l30.8-26.3c0,0,9-0.7,13.3,14.1c-4.6,4.6-32.4,26.8-32.4,26.8S509.1,139.2,519.4,131.8"/>
						<path class="st6" d="M570.9,98.8c0,0,0.9,4.6-4.5,5.9"/>
						<path class="st7" d="M519.2,132c0,0,36.9-31.2,40-33.2c0.3-0.2,0.4-0.6,0.2-0.9c0-0.1-0.1-0.1-0.1-0.1
							c-0.7-0.6-3.8-4.5-1.2-7.3c1.9-2.1,5.1-2.2,7.2-0.3c0.1,0.1,0.3,0.3,0.4,0.4c0.1,0.2,0.6,0.7,0.9-0.6c0.5-2.9,3.4-5.6,6.5-4.6
							c2.9,1,3.7,5.4,1.3,7.5c-0.5,0.5,0.6,0.3,1.1-0.1c2.2-1.6,5.3-1.1,6.9,1.2c0.2,0.2,0.3,0.4,0.4,0.7c1.4,2.8-0.9,5.6-1.8,6.5
							c-0.4,0.4,0.1,0.7,0.5,0.7c2.2,0.2,3.8,2.1,3.6,4.3c0,0.2-0.1,0.5-0.1,0.7c-1,3.8-5.8,4.2-8.4,3.3c-0.8-0.3-0.9,0.1-1,0.3
							s-0.7,1.4-3.9,2.2c-0.3,0.1-0.5,0.3-0.7,0.5c-2,2.1-39.9,33.1-39.9,33.1"/>
					</g>
				</g>
				<g>
					<defs>
						<path id="SVGID_00000165193393186089288190000000573959608829496995_" d="M544.1,108.5L519,131.1
							c-10.4,7.4,11.5,16.4,11.5,16.4s28.4-21.9,33-26.5c-0.6-13-8-15.2-13.9-15.8c-0.3,0-0.5,0-0.7,0
							C545.4,105.2,544.8,107.8,544.1,108.5"/>
					</defs>
					<clipPath id="SVGID_00000077283354247264191090000002076023343151088256_">
						<use xlink:href="#SVGID_00000165193393186089288190000000573959608829496995_"  style="overflow:visible;"/>
					</clipPath>
					<g style="clip-path:url(#SVGID_00000077283354247264191090000002076023343151088256_);">
						<path class="st9" d="M519.2,132c0,0,36.9-31.2,40-33.2c0.3-0.2,0.4-0.6,0.2-0.9c0-0.1-0.1-0.1-0.1-0.1
							c-0.7-0.6-3.8-4.5-1.2-7.3c1.9-2.1,5.1-2.2,7.2-0.3c0.1,0.1,0.3,0.3,0.4,0.4c0.1,0.2,0.6,0.7,0.9-0.6c0.5-2.9,3.4-5.6,6.5-4.6
							c2.9,1,3.7,5.4,1.3,7.5c-0.5,0.5,0.6,0.3,1.1-0.1c2.2-1.6,5.3-1.1,6.9,1.2c0.2,0.2,0.3,0.4,0.4,0.7c1.4,2.8-0.9,5.6-1.8,6.5
							c-0.4,0.4,0.1,0.7,0.5,0.7c2.2,0.2,3.8,2.1,3.6,4.3c0,0.2-0.1,0.5-0.1,0.7c-1,3.8-5.8,4.2-8.4,3.3c-0.8-0.3-0.9,0.1-1,0.3
							s-0.7,1.4-3.9,2.2c-0.3,0.1-0.5,0.3-0.7,0.5c-2,2.1-39.9,33.1-39.9,33.1"/>
					</g>
				</g>
				<g>
					<defs>
						<rect id="SVGID_00000018239117249313096230000012391590629568439946_" x="338.2" y="-33.6" width="293.7" height="368.2"/>
					</defs>
					<clipPath id="SVGID_00000075131217775963377820000012498549647369863578_">
						<use xlink:href="#SVGID_00000018239117249313096230000012391590629568439946_"  style="overflow:visible;"/>
					</clipPath>
					<g style="clip-path:url(#SVGID_00000075131217775963377820000012498549647369863578_);">
						<path class="st4" d="M471.3,211.3L461,252.4c0,0-11.2-0.3-11.6,13.1c-0.2,9.7,27.5,17.6,31.5,10.2c1.2-2,15.7-64.8,15.7-64.8
							S484.2,192.2,471.3,211.3"/>
						<path class="st11" d="M466.7,265.7c11.8,5.2,12.3,12,12.3,12c-5.5,1.4-11.3,1.1-16.6-1c-7.5-3-14.9-9-13-11.7
							C452.2,261.4,461.5,263.4,466.7,265.7"/>
						<path class="st5" d="M471.3,211.3l-9.2,36.9c0.2,0,0.4-0.1,0.5-0.3c2.3-3.6,17.6-8.8,24,6.1c1.8-7.4,10.6-44,10.6-44
							S476.5,196.9,471.3,211.3"/>
						<path class="st12" d="M471.1,212l-2.7,11.1c8.7,0.2,17.4-0.6,25.9-2.3c1.2-5.3,2.8-11.9,2.8-11.9S475.6,199.7,471.1,212"/>
						<path class="st13" d="M460.5,252.4c0,0,6-0.3,13,4.5"/>
						<path class="st14" d="M459.2,255.4c0,0-4,3.2-4.3,6.7c-0.2,2,0.7,4,2.4,5.2"/>
						<path class="st14" d="M469.4,258.1c0,0-4.2,2.6-4.5,6.1c-0.1,2,0.6,4,2,5.5"/>
						<path class="st13" d="M471.3,211.3L461,252.4c0,0-11.2-0.3-11.6,13.1c-0.2,9.7,27.5,17.6,31.5,10.2c1.2-2,15.7-64.8,15.7-64.8
							S484.2,192.2,471.3,211.3z"/>
					</g>
				</g>
				<g>
					<defs>
						<path id="SVGID_00000067954015023909509100000002926509970947665028_" d="M469.7,211.9c0,0-9.7,37.6-9.2,37.1
							c4.7-4.2,20.3-8.4,26.9,6.4c1.8-7.4,10.9-44.9,10.9-44.9s-9.7-5.4-18-5.4C475.7,205.1,471.5,206.8,469.7,211.9"/>
					</defs>
					<clipPath id="SVGID_00000085962245643613581050000000060736650571390645_">
						<use xlink:href="#SVGID_00000067954015023909509100000002926509970947665028_"  style="overflow:visible;"/>
					</clipPath>
					<g style="clip-path:url(#SVGID_00000085962245643613581050000000060736650571390645_);">
						<path class="st16" d="M471.3,211.3L461,252.4c0,0-11.2-0.3-11.6,13.1c-0.2,9.7,27.5,17.6,31.5,10.2c1.2-2,15.7-64.8,15.7-64.8
							S484.2,192.2,471.3,211.3z"/>
					</g>
				</g>
				<g>
					<defs>
						<path id="SVGID_00000117653708630016462410000011040705411391308970_" d="M471.1,212l-0.5-0.4l-3.4,11.5
							c9.5,0.1,19-0.7,28.4-2.5c0.8-3.9,1.4-7.8,1.8-11.7c0,0-7.8-3.3-15-3.3C477.5,205.5,472.9,207,471.1,212"/>
					</defs>
					<clipPath id="SVGID_00000183970435390251747360000001101904746546280893_">
						<use xlink:href="#SVGID_00000117653708630016462410000011040705411391308970_"  style="overflow:visible;"/>
					</clipPath>
					<g style="clip-path:url(#SVGID_00000183970435390251747360000001101904746546280893_);">
						<path class="st18" d="M471.3,211.3L461,252.4c0,0-11.2-0.3-11.6,13.1c-0.2,9.7,27.5,17.6,31.5,10.2c1.2-2,15.7-64.8,15.7-64.8
							S484.2,192.2,471.3,211.3z"/>
					</g>
				</g>
				<g>
					<defs>
						<rect id="SVGID_00000034048734268860628780000003904809097797996212_" x="338.2" y="-33.6" width="293.7" height="368.2"/>
					</defs>
					<clipPath id="SVGID_00000121973546145810081320000007911552004851588241_">
						<use xlink:href="#SVGID_00000034048734268860628780000003904809097797996212_"  style="overflow:visible;"/>
					</clipPath>
					<g style="clip-path:url(#SVGID_00000121973546145810081320000007911552004851588241_);">
						<path class="st4" d="M542.8,194.5l28.7,33.2c0,0,10.9-5,16.9,6.7c2.2,4.3-18.1,25.9-24.9,22.1c-2-1.2-43.7-51.1-43.7-51.1
							S522.8,183.2,542.8,194.5"/>
						<path class="st11" d="M572.3,244.3c-8.2,9.9-6.8,12.3-6.8,12.3c5.6-0.7,10.8-3.3,14.5-7.6c5.4-6.1,10-14,8.3-15.1
							C584.5,231.5,576,239.8,572.3,244.3"/>
						<path class="st5" d="M542.8,194.5l24.7,28.9c-0.2,0.1-0.4,0.1-0.5,0c-3.7-2.1-19.7,0-18.7,16.2c-4.9-5.9-29.4-34.7-29.4-34.7
							S531.7,183.9,542.8,194.5"/>
						<path class="st12" d="M543.3,195l7.4,8.7c-7.7,4.1-15.8,7.3-24.2,9.5c-3.5-4.2-7.8-9.4-7.8-9.4S533.8,186,543.3,195"/>
						<path class="st14" d="M571.7,227.6c0,0-5.5,2.4-9.6,9.9"/>
						<path class="st14" d="M575,231c0,0,4.6,1.1,6.8,4.1c1.4,1.9-0.9,5.8-0.9,5.8"/>
						<path class="st14" d="M567,237.9c0,0,4.3,1.2,6.6,3.9c2.1,2.6,0.6,4.6,0.6,4.6"/>
						<path class="st13" d="M542.8,194.5l28.7,33.2c0,0,10.3-4.8,16.6,5.7c3.6,6.1-18.1,27.2-25,22.4c-2-1.2-43.9-50-43.9-50
							S522.8,183.2,542.8,194.5z"/>
					</g>
				</g>
				<g>
					<defs>
						<path id="SVGID_00000132080275271610404780000004284865480406857858_" d="M518.4,205.9c0,0,24.9,29.2,29.8,35.1
							c-0.7-16.2,15.1-19.1,21.2-17.5c0.6,0.2-24.9-29.1-24.9-29.1c-1.8-1.8-4.2-2.9-6.7-2.9C528.2,191.5,518.4,205.9,518.4,205.9"
							/>
					</defs>
					<clipPath id="SVGID_00000029755310897828561190000002361240159656863391_">
						<use xlink:href="#SVGID_00000132080275271610404780000004284865480406857858_"  style="overflow:visible;"/>
					</clipPath>
					<g style="clip-path:url(#SVGID_00000029755310897828561190000002361240159656863391_);">
						<path class="st16" d="M542.5,193.9l27.6,32.2c0,0,9.9-5.3,16.2,6.5c4.6,8.6-17,29.1-23.1,23.3c-6.3-6.1-44.1-50.3-44.1-50.3
							S522.5,182.5,542.5,193.9z"/>
					</g>
				</g>
				<g>
					<defs>
						<path id="SVGID_00000182518206950249206000000008457831415614133402_" d="M517.1,204.5c0,0,4.4,4.9,8,9.1
							c9.2-2.6,18-6.1,26.5-10.4l-8.2-8.7l-0.3,0.6c-1.7-1.6-3.9-2.5-6.2-2.5C527.9,192.6,517.1,204.5,517.1,204.5"/>
					</defs>
					<clipPath id="SVGID_00000029010581201206966860000018290926752117881766_">
						<use xlink:href="#SVGID_00000182518206950249206000000008457831415614133402_"  style="overflow:visible;"/>
					</clipPath>
					<g style="clip-path:url(#SVGID_00000029010581201206966860000018290926752117881766_);">
						<path class="st18" d="M542.8,194.2l27.6,32.2c0,0,9.9-5.3,16.2,6.5c4.6,8.6-16.8,28-23.6,23.2c-2-1.2-43-49.7-43-49.7
							S522.8,182.9,542.8,194.2z"/>
					</g>
				</g>
				<g>
					<defs>
						<rect id="SVGID_00000156584675021483638790000001796889912276634510_" x="338.2" y="-33.6" width="293.7" height="368.2"/>
					</defs>
					<clipPath id="SVGID_00000178164360428256757620000013262154898799280036_">
						<use xlink:href="#SVGID_00000156584675021483638790000001796889912276634510_"  style="overflow:visible;"/>
					</clipPath>
					<g style="clip-path:url(#SVGID_00000178164360428256757620000013262154898799280036_);">
						<path class="st23" d="M431.8,230.7c19.5-4.3,32.8-16.5,36.7-20.3c5.6-5.4,5.6-10.4,4.9-12.1c-2.6-5.9-7-7.8-11.1-7.3
							c-3.2,0.4-16.8,7.9-31.4,10c-10.4,1.5-26-2.2-28.9,7.1c-1.4,0.1-2.7,0.3-4,0.7c-3.3,1-5.7,4-5.9,6.1c-0.3,1.6,0.2,3.2,1.4,4.2
							c-3.7,1.6-4.1,4.6-3.6,6.4c1.3,4.6,6.9,5.6,12.8,4.5c0.8,3.3,4.1,4.3,7.5,4.2C416.1,234.2,423.5,232.9,431.8,230.7
							L431.8,230.7"/>
						<path class="st5" d="M467.4,187.9c0,0-23,12.7-39.6,13.4c-8.8,13.2-1.9,28,6,28.9c16.3-2.3,32.7-17.9,32.7-17.9
							S493.3,183.5,467.4,187.9"/>
						<path class="st24" d="M402.1,207.6c-0.4,1.2-0.4,2.5,0,3.7"/>
						<path class="st24" d="M392.9,218.5c0.8,0.7,1.5,1.6,2.1,2.5"/>
						<path class="st25" d="M431.8,230.7c19.5-4.3,32.8-16.5,36.7-20.3c5.6-5.4,5.6-10.4,4.9-12.1c-2.6-5.9-7-7.8-11.1-7.3
							c-3.2,0.4-16.8,7.9-31.4,10c-10.4,1.5-26-2.2-28.9,7.1c-1.4,0.1-2.7,0.3-4,0.7c-3.3,1-5.7,4-5.9,6.1c-0.3,1.6,0.2,3.2,1.4,4.2
							c-3.7,1.6-4.1,4.6-3.6,6.4c1.3,4.6,6.9,5.6,12.8,4.5c0.8,3.3,4.1,4.3,7.5,4.2C416.1,234.2,423.5,232.9,431.8,230.7
							L431.8,230.7"/>
					</g>
				</g>
				<g>
					<defs>
						<path id="SVGID_00000064315444357158137740000006677164248462517938_" d="M467.4,186.3c0,0-22.3,13.1-38.9,13.8
							c-8.8,13.2-1.7,29.7,6.3,30.7c16.3-2.3,33.7-16.4,33.7-16.4s21.9-28.4,3.3-28.4C470.3,185.9,468.8,186,467.4,186.3"/>
					</defs>
					<clipPath id="SVGID_00000072963885963387233880000009267130211643802250_">
						<use xlink:href="#SVGID_00000064315444357158137740000006677164248462517938_"  style="overflow:visible;"/>
					</clipPath>
					<g style="clip-path:url(#SVGID_00000072963885963387233880000009267130211643802250_);">
						<path class="st16" d="M431.8,230.7c19.5-4.3,32.8-16.5,36.7-20.3c5.6-5.4,5.6-10.4,4.9-12.1c-2.6-5.9-7-7.8-11.1-7.3
							c-3.2,0.4-16.8,7.9-31.4,10c-10.4,1.5-26-2.2-28.9,7.1c-1.4,0.1-2.7,0.3-4,0.7c-3.3,1-5.7,4-5.9,6.1c-0.3,1.6,0.2,3.2,1.4,4.2
							c-3.7,1.6-4.1,4.6-3.6,6.4c1.3,4.6,6.9,5.6,12.8,4.5c0.8,3.3,4.1,4.3,7.5,4.2C416.1,234.2,423.5,232.9,431.8,230.7
							L431.8,230.7"/>
					</g>
				</g>
				<g>
					<defs>
						<rect id="SVGID_00000057146300885227686900000009415026201683235761_" x="338.2" y="-33.6" width="293.7" height="368.2"/>
					</defs>
					<clipPath id="SVGID_00000152960716261604594630000009587593824789492923_">
						<use xlink:href="#SVGID_00000057146300885227686900000009415026201683235761_"  style="overflow:visible;"/>
					</clipPath>
					<g style="clip-path:url(#SVGID_00000152960716261604594630000009587593824789492923_);">
						<path class="st0" d="M498.7,88.1c-15.2,3.3-26-10-27.7-18.8c-1.7-8.9,6.8-27,9.9-34.1c2.9-6.6,9.9-25.8,15.7-32.6
							c1.5-1.8,3.6-3.4,4.7,0.1c0.6,1.9,4.1,15.3,5.7,21.6c1.6,6.3,6.6,25.3,8.8,32.6C517.9,64.3,517.7,84,498.7,88.1"/>
						<path class="st24" d="M498.7,88.1c-15.2,3.3-26-10-27.7-18.8c-1.7-8.9,6.8-27,9.9-34.1c2.9-6.6,9.9-25.8,15.7-32.6
							c1.5-1.8,3.6-3.4,4.7,0.1c0.6,1.9,4.1,15.3,5.7,21.6c1.6,6.3,6.6,25.3,8.8,32.6C517.9,64.3,517.7,84,498.7,88.1z"/>
						<path class="st28" d="M499.6,71.9c-9.6,1.9-14.8-5.7-15.7-11.3c-1-5.6,3.8-16.3,5.5-20.9c1-2.7,7.3-18.2,9.1-21
							c0.7-1,1.6-0.8,2,0.3s2.7,10.3,3.8,14.2s4,15.8,5.3,20.4C510.8,58.3,511.5,69.6,499.6,71.9"/>
						<path class="st0" d="M451.6,99.4c-15.2,3.2-23.8-10.8-27.7-18.9c-2.4-5.2,5.6-22.9,10-33.6c1.7-4.2,11.7-26.3,14.6-30.7
							c1.1-1.6,3.3-4,4.3-1.9c1.2,2.4,4.6,16.6,6.3,22.9c1.7,6.3,7.8,23.6,9.9,30.9C471.1,75.4,470.6,95.4,451.6,99.4"/>
						<path class="st24" d="M451.6,99.4c-15.2,3.2-23.8-10.8-27.7-18.9c-2.4-5.2,5.6-22.9,10-33.6c1.7-4.2,11.7-26.3,14.6-30.7
							c1.1-1.6,3.3-4,4.3-1.9c1.2,2.4,4.6,16.6,6.3,22.9c1.7,6.3,7.8,23.6,9.9,30.9C471.1,75.4,470.6,95.4,451.6,99.4z"/>
						<path class="st28" d="M451.7,85.3c-9.6,1.9-15.2-5.6-15.3-11.2c-0.1-5.9,3.9-16.4,5.6-21c1-2.7,6.9-17.5,8.5-20.4
							c1.1-2.1,1.6-1.5,2-0.3s3.2,10.4,4.3,14.3s4.1,15.8,5.4,20.4C463.4,71.7,463.7,83,451.7,85.3"/>
						<path class="st5" d="M443.5,153.1c6.1,22.9,8.1,39.4,12.1,49.7c5,13,14.6,14.3,36.2,11.3c16.7-2.4,33-6.9,48.5-13.5
							c12.4-5.3,7.4-17.5,6.4-27.5c-1.3-12.8-18.8-88-29-113.1c-5.3-13.1-16.2-11.2-33.7-6.6c-17,4.6-33.8,10.3-50.1,17
							c-7.5,3.2-13.5,7.6-8.7,21.4C431,108.7,438,132.4,443.5,153.1"/>
						<path class="st0" d="M438.3,135.3c-5.8-19.7-14.9-46-15.3-50.3c-0.5-6.3,3-9.9,7.7-12.9c3.7-2.4,27.3-10.5,38.8-14.1
							c1.1,0.5,10.7,6,14.1,23.2c1.7,8.8-1.5,30.9-12.1,40C463,128.4,448.8,134.4,438.3,135.3 M517.8,60.7c-3.6-6.1-5-8.4-9.8-9.8
							c-3.1-0.9-10.7-0.1-11.5,0c-2.9,10.7,0.3,25.5,1.7,30.9c2.4,9.3,6.6,19.8,20.1,28.8c4.3,2.9,11,5.3,15.7,5.4
							C529.6,99.4,521.1,66.3,517.8,60.7 M448.5,174.7c0.4-0.1,5.9-1.2,4.7-9.2c-1.3-8.6-8.5-8.7-8.9-8.5c0.5,1.5,1.8,7.5,2.2,8.6
							C447.6,168.7,447,169.4,448.5,174.7 M452.4,178.1c-1.1-0.1-2.3,0.3-3.2,0.9c2.8,9.6,3.6,20,7.2,26.5c1.1,0.5,4.8-0.9,6-3.1
							c1.1-2,1-8.5-0.5-13.3C459.8,182.6,457.4,178.1,452.4,178.1"/>
						<path class="st29" d="M539.8,172.6c-2.8-7.1-6.6-17-21.5-15.3c-8.3,0.9-16.1,2.3-23.8,5.1c-16.4,6.1-20.2,17.1-19.1,31.8
							c0.6,7.2,1.6,14.3,2.9,21.4c8.9-0.8,28.1-3.7,33.5-5.3c6.9-2.1,22.7-6.3,28.1-9.5c1.6-0.9,3.2-1.9,4.6-3.1
							C544,192.9,542.2,178.6,539.8,172.6"/>
						<path class="st30" d="M443,153.2c6.1,22.9,8.1,39.4,12.1,49.7c5,13,14.6,14.3,36.2,11.3c16.7-2.4,33-6.9,48.5-13.5
							c12.4-5.3,7.4-17.5,6.4-27.5c-1.3-12.8-18.8-88-29-113.1c-5.3-13.1-16.2-11.2-33.7-6.6c-20.7,5.5-40.6,13.3-50.1,17
							c-7.6,3-13.5,7.6-8.7,21.4C430.6,108.8,437.5,132.5,443,153.2z"/>
					</g>
				</g>
				<g>
					<defs>
						<path id="SVGID_00000147898997747118444820000011668641712508155310_" d="M518.3,157.3c-8.4,0.9-16.1,2.2-23.8,5.1
							c-16.4,6.2-19.7,17.5-18.9,32.8c0.6,7.6,1.6,15.2,3,22.8c10.4,0.1,28.3-4.1,33.6-5.8c6.9-2.2,22.7-6.4,28-9.5
							c1.6-0.8,3-1.8,4.4-2.9c-0.5-4.9-2.2-19.9-4.7-26.2c-2.7-6.9-6.3-16.3-18.9-16.3C520.2,157.1,519.2,157.2,518.3,157.3"/>
					</defs>
					<clipPath id="SVGID_00000164479503460057593410000008971273082285098415_">
						<use xlink:href="#SVGID_00000147898997747118444820000011668641712508155310_"  style="overflow:visible;"/>
					</clipPath>
					<g style="clip-path:url(#SVGID_00000164479503460057593410000008971273082285098415_);">
						<path class="st32" d="M443,153.2c6.1,22.9,8.1,39.4,12.1,49.7c5,13,14.6,14.3,36.2,11.3c16.7-2.4,33-6.9,48.5-13.5
							c12.4-5.3,7.4-17.5,6.4-27.5c-1.3-12.8-18.8-88-29-113.1c-5.3-13.1-16.2-11.2-33.7-6.6c-20.7,5.5-40.6,13.3-50.1,17
							c-7.6,3-13.5,7.6-8.7,21.4C430.6,108.8,437.5,132.5,443,153.2z"/>
					</g>
				</g>
				<g>
					<defs>
						<path id="SVGID_00000016052820260701353960000010555366204753503873_" d="M449.6,178.7c-1.3,0.9-2.6,0.9-2.2,4.2
							c1.2,8.7,1.6,12.3,4.9,19.6c0.6,1.3-0.3,2.5,4.7,3c2.7-0.2,2.6-1.4,3.9-3.6c1.2-2.1,0.2-8.4-1.3-13.4c-1.6-5.3-3.4-11-6.9-11
							C451.5,177.6,450.5,178,449.6,178.7 M444.4,156.9c-1,0.1-1.5,0.4-1.6,1.4c-0.2,2-0.1,4,0.5,6c1,3,2.2,4.9,3.6,9.1
							c0.3,1,0.7,1.3,1.7,1.2c2.1-0.2,4.7-1.8,3.7-8.3c-1-7-4.3-9.5-7.2-9.5C444.8,156.9,444.6,156.9,444.4,156.9 M463.7,56.7
							c-12.4,3.8-32.8,8.3-36.7,10.8c-5,3.2-8.7,6.9-8.2,13.4c0.3,4.3,11.7,31.6,17.8,51.9c0.3,1.1,1.4,1.7,2.4,1.6
							c10.6-1.6,22.3-9.1,30.9-16.3c11.3-9.4,15.4-32.6,13-41.5c-4.2-15.7-14.4-19.2-17-20.2c-0.1,0-0.3-0.1-0.4,0
							C464.9,56.5,464.3,56.5,463.7,56.7 M499.3,46.7c-0.7,0.2-1.3-0.1-1.8,1.2c-4.1,11.2-0.3,23.9,1,29.2
							c2.5,9.7,6.9,20.5,21.1,29.7c4.1,2.5,8.5,4.3,13.2,5.1c1.2,0.2,2.3-0.6,2.5-1.8c0.1-0.3,0-0.6,0-0.9
							c-4.8-17.8-13.9-48.1-16-54.2c-2.1-6-5.2-7.6-10.3-10.1c-0.3-0.1-0.6-0.2-0.9-0.1C506,44.9,501.4,46.2,499.3,46.7"/>
					</defs>
					<clipPath id="SVGID_00000101817363492582477310000001552544395224740013_">
						<use xlink:href="#SVGID_00000016052820260701353960000010555366204753503873_"  style="overflow:visible;"/>
					</clipPath>
					<g style="clip-path:url(#SVGID_00000101817363492582477310000001552544395224740013_);">
						<path class="st34" d="M443,153.2c6.1,22.9,8.1,39.4,12.1,49.7c5,13,14.6,14.3,36.2,11.3c16.7-2.4,33-6.9,48.5-13.5
							c12.4-5.3,7.4-17.5,6.4-27.5c-1.3-12.8-18.8-88-29-113.1c-5.3-13.1-16.2-11.2-33.7-6.6c-20.7,5.5-40.6,13.3-50.1,17
							c-7.6,3-13.5,7.6-8.7,21.4C430.6,108.8,437.5,132.5,443,153.2z"/>
					</g>
				</g>
				<g>
					<defs>
						<rect id="SVGID_00000164474491304779632020000012827100519846615442_" x="338.2" y="-33.6" width="293.7" height="368.2"/>
					</defs>
					<clipPath id="SVGID_00000095324675990940970480000010296795224985343123_">
						<use xlink:href="#SVGID_00000164474491304779632020000012827100519846615442_"  style="overflow:visible;"/>
					</clipPath>
					<g style="clip-path:url(#SVGID_00000095324675990940970480000010296795224985343123_);">
						<path class="st36" d="M493.9,86.6c0,0-5.6-25.3-21-22.9c-22.4,5.3-16.4,43.5,0.6,47.1C485.3,113.2,498.5,107.5,493.9,86.6"/>
						<path class="st37" d="M493.9,86.6c0,0-5.6-25.3-21-22.9c-22.4,5.3-16.4,43.5,0.6,47.1C485.3,113.2,498.5,107.5,493.9,86.6z"/>
						<path class="st38" d="M472.9,91.8c1,2.9,4,4.9,6.2,4.2c5.1-1.5,2.7-9.3,1.9-11.4c-1.6-4.1-3.4-5.4-5.4-5.4
							C472.9,79.2,470,83.1,472.9,91.8"/>
						<path class="st36" d="M501.8,56.4c0,0-12.8,2-4.9,26.5c7.9,24.5,18,18.9,18,18.9s12.6-2.3,5.1-26
							C512.5,51.9,501.8,56.4,501.8,56.4"/>
						<path class="st37" d="M501.8,56.4c0,0-12.8,2-4.9,26.5c7.9,24.5,18,18.9,18,18.9s12.6-2.3,5.1-26
							C512.5,51.9,501.8,56.4,501.8,56.4z"/>
						<path class="st38" d="M500.2,72.1c-0.5,2.5-0.3,5,0.7,7.3c1,2.4,2.5,4.2,4.5,3.9c1.9-0.2,3.3-1.9,3.1-3.7c0,0,0-0.1,0-0.1
							c-0.2-2.1-0.6-4.1-1.5-6c-0.8-2-2.2-4.4-4-4.2C501.5,69.4,500.3,70.6,500.2,72.1"/>
						<path class="st29" d="M455.1,65.6c3.4-0.2,6.9-4.6,10.1-7.1c5.6-4.3,7.2-4.1,8.3-6.9c0.9-2.3,0.2-6.5-3.2-7.5
							c-3.4-1-7.5-0.2-11.8,2.4s-8.5,7.6-8.9,12.1C449.2,63.1,451.2,65.8,455.1,65.6"/>
						<path class="st39" d="M455.1,65.6c3.4-0.2,6.9-4.6,10.1-7.1c5.6-4.3,7.2-4.1,8.3-6.9c0.9-2.3,0.2-6.5-3.2-7.5
							c-3.4-1-7.5-0.2-11.8,2.4s-8.5,7.6-8.9,12.1C449.2,63.1,451.2,65.8,455.1,65.6z"/>
						<path class="st29" d="M488.5,48c2.5,1.8,8.2,0.5,11.5,1.1c4,0.8,7.6,2.6,11.4,0.5c3.1-1.7,3-4.2,2.5-6.6c-1-4-6-6.9-11-7.7
							c-4.8-0.7-10.2,0.2-13.2,2C485.7,39.8,485,45.5,488.5,48"/>
						<path class="st39" d="M488.5,48c2.5,1.8,8.2,0.5,11.5,1.1c4,0.8,7.6,2.6,11.4,0.5c3.1-1.7,3-4.2,2.5-6.6c-1-4-6-6.9-11-7.7
							c-4.8-0.7-10.2,0.2-13.2,2C485.7,39.8,485,45.5,488.5,48z"/>
						<path class="st40" d="M517.9,73.3L495,79.2l4.1,18.2c0,0-1.1,6.2-10.6,13.4c-5.6,4.2-8.3,11.1-7.1,18c0,0,47.7-10.9,48-11
							s-5.8-40.6-5.8-40.6L517.9,73.3z"/>
						<path class="st29" d="M516.2,124.4c-13.7,6.5,0.5,17.5,2.9,23.6c0.8,2.1,4.2-1.8,3.7-1c-6.9,10.7-21.3,10.6-25.3,10.7
							c-6.5,0.2-12.8-2.7-16.9-7.7c-3.4-3.9-5.3-9-5.3-14.2c0-7.1,6.3-13.8,10.4-17.6c3.8-3.6,9.3-9.1,13.2-12.6
							c6.8-6,5.9-21.3,8.8-26.4c1.5-2.8,1.9-4.3,8.7-5.6c4.4-0.9,9.2-1.8,12.1-2.3s7.2,2,8.3,6.1s3.7,28-0.5,34.4
							S516.2,124.4,516.2,124.4"/>
						<path class="st28" d="M484.1,125c4.5-4.6,12.2-10.4,15.7-13.2c5.4-4.4,9.7-9.8,11.1-16.4c2.4-11.6,2-20.8,7.5-21.9
							c6.8-1.6,20.6-6.8,23.3-4.2s1.5,18.6,2.5,27.4c1.1,9-1,19.5-4.2,23.9c-3.4,4.6-12.5,5.4-19.3,7.2c-0.8,0.2-7.5,0.8-7.9,4.2
							c-0.5,4.7,4.3,13.8,6.2,16.4c1.3,1.7,4.6-2.8,4.3-2.2c-1.4,2.7-6.2,6.1-10.2,7.7c-12.7,5.1-22.7,0.7-24.5-0.4
							c-4.5-2.7-7.8-7-9.3-12.1C478.3,137.7,478.8,130.4,484.1,125"/>
						<path class="st38" d="M514.8,129.5c0,0-10.8,1.7-17-2.1c-3.7-1.5-14.7,1.4-15.8,7.9c-0.8,4.6,3.1,28.3,36.9,13.7
							C520.5,147,510.9,140,514.8,129.5"/>
						<path class="st41" d="M483.4,144c0,0,15.5-6.5,22.7,9.1C504.9,154.4,490,156,483.4,144"/>
						<path class="st36" d="M482,135.3c0,0,2.1-9.8,16.1-7.6c4.2,0.9,8.9,5.1,24.6,0c0.4,3.6-2.2,9-17.6,7.4
							c-0.9,1-6.4,3.6-12.9,0.6C490.3,138.2,482.2,135.8,482,135.3"/>
						<path class="st42" d="M513.5,134.9c0.6,5,2.7,9.8,6.1,13.6"/>
						<path class="st43" d="M482.3,134.9c0,0,2.9,2.9,9.8,0.6c3.3,2.5,10,1.6,12.9-0.6c1.9,1.4,14.4-0.4,16-2.6
							c1.2-1.5,1.3-4.7,1.3-4.7"/>
						<path class="st44" d="M506.1,153.3c-7.4-16-22.4-9.5-22.4-9.5"/>
						<path class="st45" d="M494.4,79.5l41.8-11.4c0,0,5.8-1.4,6.4,3.8c1.2,16,2.5,27.3,1,39.7c-1.3,10.4-9.4,12.1-12.8,13.1
							c-22.3,7.2-26.4,4.4-32.9,2.9c-8.9-2-15,1.9-15.9,8.2c-1.6,10.6,8,21.3,25.7,17.2c10.9-2.5,15.2-6.9,15.2-6.9"/>
					</g>
				</g>
				<g>
					<defs>
						<path id="SVGID_00000160168677724371299290000017345797978958296471_" d="M493.2,77.9l4.2,18.5c0,0,0.6,7.2-9,14.4
							s-5.2,13.7-5.2,13.7s45.8-6.6,46.1-6.7s-8.4-39.2-8.4-39.2l-5.3-5.9L493.2,77.9z"/>
					</defs>
					<clipPath id="SVGID_00000070103294087480200600000016190792570312808328_">
						<use xlink:href="#SVGID_00000160168677724371299290000017345797978958296471_"  style="overflow:visible;"/>
					</clipPath>
					<g style="clip-path:url(#SVGID_00000070103294087480200600000016190792570312808328_);">
						<path class="st16" d="M494.4,79.5l41.8-11.4c0,0,5.8-1.4,6.4,3.8c1.2,16,2.5,27.3,1,39.7c-1.3,10.4-9.4,12.1-12.8,13.1
							c-22.3,7.2-26.4,4.4-32.9,2.9c-8.9-2-15,1.9-15.9,8.2c-1.6,10.6,8,21.3,25.7,17.2c10.9-2.5,15.2-6.9,15.2-6.9"/>
					</g>
				</g>
				<g>
					<defs>
						<path id="SVGID_00000098222364288804299490000004893824210056965515_" d="M517.7,71.4c-6.9,0.1-6.1,2.4-8.9,5.6
							c-3.9,4.3-2.3,21.6-9.1,27.5c-3.9,3.5-9.4,8.9-13.2,12.6c-3.1,2.9,6.3,5.2,17.8,3.4c7-1.1,9.6-28,8.9-30.6
							c-1.2-4.1,0.4-12.7,3-15.2c3.1-3,2.9-3.3,1.8-3.3C517.9,71.4,517.8,71.4,517.7,71.4"/>
					</defs>
					<clipPath id="SVGID_00000080172633994506509290000006388062655764710554_">
						<use xlink:href="#SVGID_00000098222364288804299490000004893824210056965515_"  style="overflow:visible;"/>
					</clipPath>
					<g style="clip-path:url(#SVGID_00000080172633994506509290000006388062655764710554_);">
						<path class="st48" d="M494.4,79.5l41.8-11.4c0,0,5.8-1.4,6.4,3.8c1.2,16,2.5,27.3,1,39.7c-1.3,10.4-9.4,12.1-12.8,13.1
							c-22.3,7.2-26.4,4.4-32.9,2.9c-8.9-2-15,1.9-15.9,8.2c-1.6,10.6,8,21.3,25.7,17.2c10.9-2.5,15.2-6.9,15.2-6.9"/>
					</g>
				</g>
				<g>
					<defs>
						<rect id="SVGID_00000171699364173146122430000005481153175720134573_" x="338.2" y="-33.6" width="293.7" height="368.2"/>
					</defs>
					<clipPath id="SVGID_00000182493010480019305000000018160405648729791114_">
						<use xlink:href="#SVGID_00000171699364173146122430000005481153175720134573_"  style="overflow:visible;"/>
					</clipPath>
					<g style="clip-path:url(#SVGID_00000182493010480019305000000018160405648729791114_);">
						<path class="st50" d="M544.6,80.8c-0.5,4.8-2.2,11.3-6.1,12s-7.9-3-10.7-5.3s-8.2-6.2-8.8-9.6c-1-5.3,1.2-6.1,12-8.8
							c8.3-2.1,10.1-2.8,12.6,0.1C545.4,71.4,545.1,76.5,544.6,80.8"/>
						<path class="st25" d="M544.6,80.8c-0.5,4.8-2.2,11.3-6.1,12s-7.9-3-10.7-5.3s-8.2-6.2-8.8-9.6c-1-5.3,1.2-6.1,12-8.8
							c8.3-2.1,10.1-2.8,12.6,0.1C545.4,71.4,545.1,76.5,544.6,80.8z"/>
						<path class="st51" d="M538.4,68.9c1.7,0.3,2,2.1,0.8,3.3s-3.2,2.5-8,3.4c-3.6,0.7-7.2,1.4-7.4-1.1c-0.2-2.7,3.5-2.9,6.8-3.9
							C534.8,69.3,536.9,68.6,538.4,68.9"/>
						<path class="st4" d="M459.7,141.2c0,0-45.4-16.8-49-17.6c-0.3-0.1-0.5-0.4-0.5-0.7c0-0.1,0-0.1,0.1-0.2
							c0.4-0.8,2.1-5.5-1.4-7.2c-2.5-1.3-5.6-0.3-6.9,2.1c-0.1,0.2-0.2,0.4-0.3,0.6c-0.1,0.2-0.3,0.9-1-0.2
							c-1.4-2.5-5.1-4.1-7.7-2.1c-2.4,1.9-1.6,6.4,1.3,7.5c0.7,0.3-0.4,0.4-1.1,0.2c-2.6-0.7-5.4,0.8-6.1,3.5
							c-0.1,0.3-0.1,0.5-0.2,0.8c-0.4,3.1,2.7,4.9,4,5.5c0.5,0.2,0.1,0.7-0.2,0.8c-2,0.9-2.8,3.3-1.9,5.3c0.1,0.2,0.2,0.4,0.4,0.6
							c2.2,3.2,6.9,2,9,0.2c0.6-0.6,0.8-0.2,1.1-0.1s1.1,1.1,4.4,0.7c0.3,0,0.6,0.1,0.8,0.2c2.6,1.3,48.8,17.6,48.8,17.6"/>
						<path class="st5" d="M459.4,141.1l-40.1-14.6c0,0,9.5,12-5.5,18.2c5.9,2.8,39.6,14.1,39.6,14.1S471.7,144.6,459.4,141.1"/>
						<path class="st6" d="M399.8,127.6c0,0,0.7,4.6,6.2,4.1"/>
						<path class="st52" d="M459.7,141.2c0,0-45.4-16.8-49-17.6c-0.3-0.1-0.5-0.4-0.5-0.7c0-0.1,0-0.1,0.1-0.2
							c0.4-0.8,2.1-5.5-1.4-7.2c-2.5-1.3-5.6-0.3-6.9,2.1c-0.1,0.2-0.2,0.4-0.3,0.6c-0.1,0.2-0.3,0.9-1-0.2
							c-1.4-2.5-5.1-4.1-7.7-2.1c-2.4,1.9-1.6,6.4,1.3,7.5c0.7,0.3-0.4,0.4-1.1,0.2c-2.6-0.7-5.4,0.8-6.1,3.5
							c-0.1,0.3-0.1,0.5-0.2,0.8c-0.4,3.1,2.7,4.9,4,5.5c0.5,0.2,0.1,0.7-0.2,0.8c-2,0.9-2.8,3.3-1.9,5.3c0.1,0.2,0.2,0.4,0.4,0.6
							c2.2,3.2,6.9,2,9,0.2c0.6-0.6,0.8-0.2,1.1-0.1s1.1,1.1,4.4,0.7c0.3,0,0.6,0.1,0.8,0.2c2.6,1.3,48.8,17.6,48.8,17.6"/>
					</g>
				</g>
				<g>
					<defs>
						<path id="SVGID_00000175305997242491306030000016373365032644160409_" d="M419.1,126.1c3.5,4.3,4.8,14.8-6.6,19.2
							c5.9,2.8,41.8,14.3,41.8,14.3s17.5-15.9,5.2-19.3l-38-15.4c-0.8-0.3-1.6-0.5-2.5-0.6C418.4,124.3,418,124.7,419.1,126.1"/>
					</defs>
					<clipPath id="SVGID_00000084514038682764485760000017882354807080976310_">
						<use xlink:href="#SVGID_00000175305997242491306030000016373365032644160409_"  style="overflow:visible;"/>
					</clipPath>
					<g style="clip-path:url(#SVGID_00000084514038682764485760000017882354807080976310_);">
						<path class="st54" d="M459.7,141.2c0,0-45.4-16.8-49-17.6c-0.3-0.1-0.5-0.4-0.5-0.7c0-0.1,0-0.1,0.1-0.2
							c0.4-0.8,2.1-5.5-1.4-7.2c-2.5-1.3-5.6-0.3-6.9,2.1c-0.1,0.2-0.2,0.4-0.3,0.6c-0.1,0.2-0.3,0.9-1-0.2
							c-1.4-2.5-5.1-4.1-7.7-2.1c-2.4,1.9-1.6,6.4,1.3,7.5c0.7,0.3-0.4,0.4-1.1,0.2c-2.6-0.7-5.4,0.8-6.1,3.5
							c-0.1,0.3-0.1,0.5-0.2,0.8c-0.4,3.1,2.7,4.9,4,5.5c0.5,0.2,0.1,0.7-0.2,0.8c-2,0.9-2.8,3.3-1.9,5.3c0.1,0.2,0.2,0.4,0.4,0.6
							c2.2,3.2,6.9,2,9,0.2c0.6-0.6,0.8-0.2,1.1-0.1s1.1,1.1,4.4,0.7c0.3,0,0.6,0.1,0.8,0.2c2.6,1.3,48.8,17.6,48.8,17.6"/>
					</g>
				</g>
			</g>
		</g>
	</g>
</g>
</svg>
