<svg id="Layer_1" 
    xmlns="http://www.w3.org/2000/svg" viewBox="0 0 24.51 25.92">
    <style>.st0{fill-rule:evenodd;clip-rule:evenodd;fill:#5a5a87}</style>
    <g transform="translate(-743 -2297)" id="Design">
        <g id="Group" transform="translate(743 2297)">
            <g id="ico-paw">
                <g id="Group-10">
                    <path id="Fill-1" class="st0" d="M21.96 14.67C16.6 6.81 5.48 8.23 2.65 14.19c-1.66 3.49-2.83 8.66.24 10.7 1.4.93 3.31.9 5.26.5 1.02-.2 1.3-.55 1.99-.71.49-.12.98-.19 1.33-.21 1.51-.06 2.46.43 3.62.98 4.45 2.08 12.23-2.93 6.87-10.78"/>
                    <path id="Fill-3" class="st0" d="M3.24 4.19C1.09 4.19 0 5.64 0 7.43c0 1.79 1.06 3.42 3.24 3.24a3.24 3.24 0 0 0 3.24-3.24c0-1.79-.92-3.24-3.24-3.24"/>
                    <path id="Fill-5" class="st0" d="M24.49 6.58c0-2.06-1.33-3.9-3.73-3.73-2.68 0-3.73 1.67-3.73 3.73s1.86 3.99 3.73 3.73c2.06 0 3.99-1.47 3.73-3.73"/>
                    <path id="Fill-7" class="st0" d="M15.79 3.88c0-2.13-1.46-4.08-3.86-3.86-2.13 0-3.95 1.46-3.86 3.86 0 2.13 1.09 3.91 3.86 3.86 2.13-.04 4.04-1.47 3.86-3.86"/>
                </g>
            </g>
        </g>
    </g>
</svg>